<svg width="40" height="42" viewBox="0 0 40 42" fill="none" xmlns="http://www.w3.org/2000/svg">
<path opacity="0.4" fill-rule="evenodd" clip-rule="evenodd" d="M34.4821 32.6524V21.598C34.4821 19.3939 32.7038 17.5997 30.5188 17.5997H24.0238C23.5638 17.5997 23.1904 17.976 23.1904 18.4396V32.6524H21.3571V11.8373C21.3571 9.63311 19.5788 7.83887 17.3938 7.83887H10.8188C8.6338 7.83887 6.85547 9.63311 6.85547 11.8373V32.6524H34.4821Z" fill="#F1174A"/>
<path d="M14.8259 26.0264H13.3926C12.6926 26.0264 12.1426 26.5976 12.1426 27.2864C12.1426 27.992 12.6926 28.5464 13.3926 28.5464H14.8259C15.5092 28.5464 16.0759 27.992 16.0759 27.2864C16.0759 26.5976 15.5092 26.0264 14.8259 26.0264Z" fill="#F1174A"/>
<path d="M13.3926 14.854C12.6926 14.854 12.1426 15.4252 12.1426 16.114C12.1426 16.8196 12.6926 17.374 13.3926 17.374H14.8259C15.5092 17.374 16.0759 16.8196 16.0759 16.114C16.0759 15.4252 15.5092 14.854 14.8259 14.854H13.3926Z" fill="#F1174A"/>
<path d="M14.8259 20.4316H13.3926C12.6926 20.4316 12.1426 21.0028 12.1426 21.6916C12.1426 22.3972 12.6926 22.9516 13.3926 22.9516H14.8259C15.5092 22.9516 16.0759 22.3972 16.0759 21.6916C16.0759 21.0028 15.5092 20.4316 14.8259 20.4316Z" fill="#F1174A"/>
<path d="M29.5594 27.874H28.1094C27.426 27.874 26.8594 28.4452 26.8594 29.134C26.8594 29.8396 27.426 30.394 28.1094 30.394H29.5594C30.2427 30.394 30.8094 29.8396 30.8094 29.134C30.8094 28.4452 30.2427 27.874 29.5594 27.874Z" fill="#F1174A"/>
<path d="M29.5594 24.8164C30.2427 24.8164 30.8094 24.262 30.8094 23.5564C30.8094 22.8676 30.2427 22.2964 29.5594 22.2964H28.1094C27.426 22.2964 26.8594 22.8676 26.8594 23.5564C26.8594 24.262 27.426 24.8164 28.1094 24.8164H29.5594Z" fill="#F1174A"/>
<path d="M37.0411 33.9119C37.0411 33.2231 36.4911 32.6519 35.7911 32.6519H5.77734C5.09401 32.6519 4.52734 33.2231 4.52734 33.9119C4.52734 34.6175 5.09401 35.1719 5.77734 35.1719H35.7911C36.4911 35.1719 37.0411 34.6175 37.0411 33.9119Z" fill="#F1174A"/>
</svg>
